<svg width="18" height="35" viewBox="0 0 18 35" fill="none" xmlns="http://www.w3.org/2000/svg">
<g style="mix-blend-mode:overlay">
<path d="M4.66169 17.3789H0.32431L8.70408 34.783L4.66169 17.3789Z" fill="#009A9C"/>
</g>
<g style="mix-blend-mode:overlay">
<path d="M12.8933 17.3791H17.2152L8.76941 0L12.8933 17.3791Z" fill="#14B8A6"/>
</g>
<g style="mix-blend-mode:screen" opacity="0.46">
<path d="M12.4016 7.47388L7.2424 17.3791H17.2152L12.4016 7.47388Z" fill="#2DD4BF"/>
</g>
<path d="M15.9986 17.3791L6.70528 26.1774L4.58759 17.3791L8.7694 0L11.1351 9.91477L10.0564 11.9855L7.2424 17.3791H15.9986Z" fill="#010101"/>
<g style="mix-blend-mode:multiply" opacity="0.63">
<path d="M2.27838 13.3578L13.1567 11.4516L8.7694 0L2.27838 13.3578Z" fill="#002638"/>
</g>
<path d="M15.9986 17.3789L5.24066 27.5894L8.7041 34.783L17.2152 17.3789H15.9986Z" fill="#0D9488"/>
<path d="M4.66169 17.3789H0.32431L8.70408 34.783L4.66169 17.3789Z" fill="#009A9C"/>
<g style="mix-blend-mode:multiply" opacity="0.63">
<path d="M17.2152 17.3789L15.6633 20.3839L3.13322 23.2245L0.32431 17.3789H4.67489L5.88563 22.5918L11.9709 21.2121L12.8932 17.3789H17.2152Z" fill="#025563"/>
<path d="M12.8932 17.3789L11.9709 21.2121L5.88563 22.5918L4.6749 17.3789H12.8932Z" fill="#002638"/>
</g>
<path d="M12.8933 17.3789H17.2152L8.7041 34.783L12.8933 17.3789Z" fill="#0D9488"/>
<path d="M11.979 21.2107L8.7041 34.7831L11.9709 21.2122L11.9782 21.2107H11.979Z" fill="#002638"/>
<path d="M15.7557 20.3635L8.7041 34.7833L11.979 21.2108L15.7557 20.3635Z" fill="#134E4A"/>
<path d="M8.70412 34.7832L5.25021 27.5549L6.69943 26.1523L8.70412 34.7832Z" fill="#00A6A3"/>
<path d="M8.70409 34.7831L5.23184 27.5717L6.70527 26.1772L8.70409 34.7831Z" fill="#2DD4BF"/>
<path d="M4.66169 17.3791H0.32431L8.76939 0L4.66169 17.3791Z" fill="#14B8A6"/>
<path d="M11.1351 9.91477L10.0565 11.9855L5.7565 12.748L8.7694 0L11.1351 9.91477Z" fill="#021825"/>
<path d="M12.031 20.991L11.9789 21.2107H11.9782L11.7515 21.2623L12.031 20.991Z" fill="#00A6A3"/>
<path d="M15.7653 17.3789L11.979 21.2106H11.9782L11.9709 21.2121L12.8932 17.3789H15.7653Z" fill="#134E4A"/>
<path d="M15.7653 17.3789H12.8933L11.9709 21.2121L5.88566 22.5918L4.66171 17.3789H15.7653Z" fill="#041C28"/>
<g style="mix-blend-mode:overlay" opacity="0.18">
<path d="M12.8933 17.5959L8.44581 0.216797L1.95406 13.5746L0 17.5959L2.80891 23.4415L2.81405 23.44L4.90752 27.7886L8.37977 35L12.8925 17.5959H12.8933Z" fill="#2DD4BF"/>
</g>
</svg>
