<svg width="42" height="42" viewBox="0 0 42 42" fill="none" xmlns="http://www.w3.org/2000/svg">
<g clip-path="url(#clip0_44_1163)">
<path d="M42 0H0V42H42V0Z" fill="#4D715F"/>
<path d="M12.1334 12.1333V3.26666H16.5667L12.1334 12.1333ZM21.0001 3.26666H29.8667V7.7L21.0001 3.26666ZM29.8667 29.8667V38.7333H25.4334L29.8667 29.8667ZM21.0001 38.7333H12.1334V34.3L21.0001 38.7333ZM3.26672 21V12.1333H7.70006L3.26672 21ZM29.8667 12.1333H38.7334V16.5667L29.8667 12.1333ZM38.7334 21V29.8667H34.3001L38.7334 21ZM12.1334 29.8667H3.26672V25.4333L12.1334 29.8667Z" fill="#E3E3E3"/>
<path d="M3.26672 3.26666H12.1334V12.1333L3.26672 3.26666ZM38.7334 3.26666V12.1333H29.8667L38.7334 3.26666ZM38.7334 38.7333H29.8667V29.8667L38.7334 38.7333ZM3.26672 38.7333V29.8667H12.1334L3.26672 38.7333Z" fill="#464646"/>
<path d="M12.1333 12.1334H21V21H12.1333V12.1334ZM14.9333 20.0667H20.0666V14.9334H14.9333V20.0667ZM29.8666 12.1334V21H21V12.1334H29.8666ZM21.9333 14.9334V20.0667H27.0666V14.9334H21.9333ZM29.8666 29.8667H21V21H29.8666V29.8667ZM27.0666 21.9334H21.9333V27.0667H27.0666V21.9334ZM12.1333 29.8667V21H21V29.8667H12.1333ZM20.0666 27.0667V21.9334H14.9333V27.0667H20.0666Z" fill="#4BD6AE"/>
</g>
<rect x="0.5" y="0.5" width="41" height="41" rx="20.5" stroke="#0D9488"/>
<defs>
<clipPath id="clip0_44_1163">
<rect width="42" height="42" rx="21" fill="white"/>
</clipPath>
</defs>
</svg>
