<svg width="16" height="16" viewBox="0 0 16 16" fill="none" xmlns="http://www.w3.org/2000/svg">
<g clip-path="url(#clip0_80_2469)">
<path d="M11.5 12C9.70043 12 8.98533 9.9121 8.29368 7.89305C7.63819 5.97915 6.95998 4 5.49998 4C5.15903 4.02005 4.83177 4.14115 4.5599 4.34787C4.28802 4.55459 4.08385 4.83757 3.97338 5.16075L3.02563 4.8419C3.05078 4.7667 3.66088 3 5.49998 3C7.67453 3 8.50608 5.42735 9.23998 7.56895C9.84423 9.33335 10.415 11 11.5 11C11.8409 10.98 12.1682 10.8589 12.4401 10.6521C12.7119 10.4454 12.9161 10.1624 13.0266 9.83925L13.9743 10.1581C13.9492 10.2333 13.3391 12 11.5 12Z" fill="#2DD4BF"/>
<path d="M2 14V8.5H3V7.5H2V1H1V14C1 14.2652 1.10536 14.5196 1.29289 14.7071C1.48043 14.8946 1.73478 15 2 15H15V14H2Z" fill="#2DD4BF"/>
<path d="M5 7.5H4V8.5H5V7.5Z" fill="#2DD4BF"/>
<path d="M7 7.5H6V8.5H7V7.5Z" fill="#2DD4BF"/>
<path d="M11 7.5H10V8.5H11V7.5Z" fill="#2DD4BF"/>
<path d="M13 7.5H12V8.5H13V7.5Z" fill="#2DD4BF"/>
<path d="M15 7.5H14V8.5H15V7.5Z" fill="#2DD4BF"/>
</g>
<defs>
<clipPath id="clip0_80_2469">
<rect width="16" height="16" fill="white"/>
</clipPath>
</defs>
</svg>
