<svg width="32" height="32" viewBox="0 0 32 32" fill="none" xmlns="http://www.w3.org/2000/svg">
<g clip-path="url(#clip0_184_11)">
<path d="M25 13H19V15H25V13Z" fill="#779A98"/>
<path d="M13 21H11V19H9V21H7V23H9V25H11V23H13V21Z" fill="#779A98"/>
<path d="M13 9H7V11H13V9Z" fill="#779A98"/>
<path d="M25 17H19V19H25V17Z" fill="#779A98"/>
<path d="M27 3H5C4.46975 3.00061 3.9614 3.21152 3.58646 3.58646C3.21152 3.9614 3.00061 4.46975 3 5V27C3.00061 27.5302 3.21152 28.0386 3.58646 28.4135C3.9614 28.7885 4.46975 28.9994 5 29H27C27.5302 28.9994 28.0386 28.7885 28.4135 28.4135C28.7885 28.0386 28.9994 27.5302 29 27V5C28.9994 4.46975 28.7885 3.9614 28.4135 3.58646C28.0386 3.21152 27.5302 3.00061 27 3ZM15 5V15H5V5H15ZM5 17H15V27H5V17ZM17 27V5H27V27H17Z" fill="#779A98"/>
</g>
<defs>
<clipPath id="clip0_184_11">
<rect width="32" height="32" fill="white"/>
</clipPath>
</defs>
</svg>
