<svg width="27" height="54" viewBox="0 0 27 54" fill="none" xmlns="http://www.w3.org/2000/svg">
<g style="mix-blend-mode:overlay">
<path d="M7.11971 26.5426H0.495346L13.2936 53.1235L7.11971 26.5426Z" fill="#009A9C"/>
</g>
<g style="mix-blend-mode:overlay">
<path d="M19.6915 26.5426H26.2924L13.3933 0L19.6915 26.5426Z" fill="#14B8A6"/>
</g>
<g style="mix-blend-mode:screen" opacity="0.46">
<path d="M18.9407 11.4147L11.0611 26.5426H26.2924L18.9407 11.4147Z" fill="#2DD4BF"/>
</g>
<path d="M24.4343 26.5426L10.2408 39.98L7.00652 26.5426L13.3933 0L17.0064 15.1426L15.359 18.3051L11.0612 26.5426H24.4343Z" fill="#010101"/>
<g style="mix-blend-mode:multiply" opacity="0.63">
<path d="M3.47972 20.4011L20.0939 17.4897L13.3933 0L3.47972 20.4011Z" fill="#002638"/>
</g>
<path d="M24.4343 26.5426L8.00393 42.1368L13.2936 53.1235L26.2924 26.5426H24.4343Z" fill="#0D9488"/>
<path d="M7.11971 26.5426H0.495346L13.2936 53.1235L7.11971 26.5426Z" fill="#009A9C"/>
<g style="mix-blend-mode:multiply" opacity="0.63">
<path d="M26.2924 26.5426L23.9221 31.1321L4.78532 35.4705L0.495346 26.5426H7.13988L8.98901 34.5041L18.2828 32.3969L19.6915 26.5426H26.2924Z" fill="#025563"/>
<path d="M19.6915 26.5426L18.2828 32.3969L8.98901 34.5041L7.13988 26.5426H19.6915Z" fill="#002638"/>
</g>
<path d="M19.6915 26.5426H26.2924L13.2936 53.1235L19.6915 26.5426Z" fill="#0D9488"/>
<path d="M18.2952 32.3947L13.2936 53.1235L18.2828 32.3969L18.294 32.3947H18.2952Z" fill="#002638"/>
<path d="M24.0633 31.1006L13.2936 53.1235L18.2952 32.3947L24.0633 31.1006Z" fill="#134E4A"/>
<path d="M13.2936 53.1235L8.01849 42.0839L10.2318 39.9417L13.2936 53.1235Z" fill="#00A6A3"/>
<path d="M13.2936 53.1234L7.99048 42.1097L10.2408 39.98L13.2936 53.1234Z" fill="#2DD4BF"/>
<path d="M7.11971 26.5426H0.495346L13.3933 0L7.11971 26.5426Z" fill="#14B8A6"/>
<path d="M17.0064 15.1426L15.359 18.3051L8.79177 19.4697L13.3933 0L17.0064 15.1426Z" fill="#021825"/>
<path d="M18.3747 32.059L18.2952 32.3946H18.294L17.9477 32.4735L18.3747 32.059Z" fill="#00A6A3"/>
<path d="M24.0779 26.5426L18.2952 32.3947H18.294L18.2828 32.3969L19.6915 26.5426H24.0779Z" fill="#134E4A"/>
<path d="M24.0779 26.5426H19.6915L18.2828 32.3969L8.989 34.5041L7.1197 26.5426H24.0779Z" fill="#041C28"/>
<g style="mix-blend-mode:overlay" opacity="0.18">
<path d="M19.6915 26.8737L12.8991 0.331116L2.98438 20.7322L3.8147e-06 26.8737L4.28998 35.8016L4.29782 35.7993L7.49514 42.4409L12.7982 53.4546L19.6904 26.8737H19.6915Z" fill="#2DD4BF"/>
</g>
</svg>
