<svg width="122" height="29" viewBox="0 0 122 29" fill="none" xmlns="http://www.w3.org/2000/svg">
<path d="M2.23365 9.30112C3.56166 7.82571 5.22812 7.08689 7.20501 7.08689C8.70224 7.08689 10.0583 7.54077 11.272 8.44966V0.927368H15.4801V22.2171H11.272V21.1956C10.0852 22.1326 8.73026 22.5865 7.20501 22.5865C5.22812 22.5865 3.56166 21.8488 2.23365 20.3723C0.905641 18.8676 0.256767 17.0228 0.256767 14.8367C0.256767 12.6506 0.906762 10.7776 2.23365 9.30112ZM4.6633 14.8074C4.6633 16.8516 6.10337 18.3844 7.94017 18.3844C9.77697 18.3844 11.2171 16.8516 11.2171 14.8074C11.2171 13.814 10.9066 12.9907 10.2566 12.3094C9.60663 11.628 8.84457 11.2867 7.94017 11.2867C6.10449 11.2867 4.6633 12.8477 4.6633 14.8063V14.8074Z" fill="#2DD4BF"/>
<path d="M19.3801 9.30108C20.7081 7.82568 22.3746 7.08685 24.3515 7.08685C25.8487 7.08685 27.2047 7.54074 28.4184 8.44963V7.45627H32.6266V21.9051C32.6266 23.9199 31.9206 25.5958 30.4805 26.9293C29.0684 28.2921 27.3168 28.9724 25.1987 28.9724C23.5323 28.9724 22.007 28.5466 20.651 27.667C19.323 26.7874 18.4197 25.7085 17.9681 24.3738L22.1482 23.3805C22.5998 24.2882 23.7866 24.9415 25.1135 24.9415C26.9492 24.9415 28.4184 23.6643 28.4184 21.9614V21.1944C27.2316 22.1314 25.8767 22.5853 24.3515 22.5853C22.3746 22.5853 20.7081 21.8476 19.3801 20.3711C18.0521 18.8664 17.4032 17.0216 17.4032 14.8355C17.4032 12.6495 18.0532 10.7765 19.3801 9.29996V9.30108ZM21.8098 14.8648C21.8098 16.8234 23.2498 18.3844 25.0866 18.3844C25.991 18.3844 26.7531 18.0442 27.4031 17.3629C28.0531 16.6815 28.3635 15.8582 28.3635 14.8648C28.3635 12.8206 26.8943 11.2878 25.0866 11.2878C23.279 11.2878 21.8098 12.8206 21.8098 14.8648Z" fill="#2DD4BF"/>
<path d="M34.4925 3.79368C34.4925 3.0267 34.7469 2.40275 35.2266 1.91959C35.7354 1.43755 36.3562 1.18188 37.1194 1.18188C37.8826 1.18188 38.5035 1.43755 38.9831 1.91959C39.4919 2.40163 39.7463 3.0267 39.7463 3.79368C39.7463 4.56067 39.4919 5.18461 38.9831 5.66665C38.5035 6.14869 37.8815 6.40435 37.1194 6.40435C36.3574 6.40435 35.7354 6.14869 35.2266 5.66665C34.7469 5.18461 34.4925 4.55954 34.4925 3.79368ZM35.0013 22.2159V7.45516H39.2386V22.2159H35.0013Z" fill="#2DD4BF"/>
<path d="M46.0165 20.1729C46.0165 21.5638 44.9709 22.5853 43.5869 22.5853C42.2028 22.5853 41.2144 21.5638 41.2144 20.1729C41.2144 18.782 42.2308 17.7604 43.5869 17.7604C44.9429 17.7604 46.0165 18.782 46.0165 20.1729Z" fill="#2DD4BF"/>
<path d="M49.1522 9.30108C50.4802 7.82568 52.1467 7.08685 54.1235 7.08685C55.6208 7.08685 56.9768 7.54074 58.1905 8.44963V7.45627H62.3987V21.9051C62.3987 23.9199 61.6926 25.5958 60.2526 26.9293C58.8405 28.2921 57.0889 28.9724 54.9708 28.9724C53.3043 28.9724 51.7791 28.5466 50.423 27.667C49.095 26.7874 48.1918 25.7085 47.7401 24.3738L51.9203 23.3805C52.3719 24.2882 53.5587 24.9415 54.8856 24.9415C56.7213 24.9415 58.1905 23.6643 58.1905 21.9614V21.1944C57.0037 22.1314 55.6488 22.5853 54.1235 22.5853C52.1467 22.5853 50.4802 21.8476 49.1522 20.3711C47.8242 18.8664 47.1753 17.0216 47.1753 14.8355C47.1753 12.6495 47.8253 10.7765 49.1522 9.29996V9.30108ZM51.5818 14.8648C51.5818 16.8234 53.0219 18.3844 54.8587 18.3844C55.7631 18.3844 56.5252 18.0442 57.1752 17.3629C57.8252 16.6815 58.1356 15.8582 58.1356 14.8648C58.1356 12.8206 56.6664 11.2878 54.8587 11.2878C53.051 11.2878 51.5818 12.8206 51.5818 14.8648Z" fill="#2DD4BF"/>
<path d="M66.2976 9.30108C67.6256 7.82568 69.292 7.08685 71.2689 7.08685C72.7661 7.08685 74.1222 7.54074 75.337 8.44963V7.45627H79.5451V22.217H75.337V21.1955C74.1502 22.1326 72.7942 22.5865 71.2689 22.5865C69.292 22.5865 67.6256 21.8488 66.2976 20.3722C64.9695 18.8675 64.3207 17.0227 64.3207 14.8367C64.3207 12.6506 64.9707 10.7776 66.2976 9.30108ZM68.7272 14.8074C68.7272 16.8515 70.1673 18.3844 72.0041 18.3844C73.8409 18.3844 75.2798 16.8515 75.2798 14.8074C75.2798 13.814 74.9694 12.9907 74.3194 12.3093C73.6694 11.6279 72.9073 11.2867 72.0029 11.2867C70.1673 11.2867 68.7261 12.8477 68.7261 14.8062L68.7272 14.8074Z" fill="#2DD4BF"/>
<path d="M81.9187 22.2171V7.4563H86.1549V8.79092C87.1433 7.65565 88.4142 7.08801 89.9686 7.08801C91.8894 7.08801 93.3867 7.855 94.4312 9.35855C95.3916 7.85387 96.8597 7.08801 98.8377 7.08801C100.448 7.08801 101.775 7.62749 102.877 8.67829C103.978 9.72909 104.515 11.0063 104.515 12.5673V22.2182H100.279V13.7025C100.279 12.1979 99.2053 11.0344 97.8212 11.0344C96.4372 11.0344 95.3356 12.1979 95.3356 13.7025V22.2182H91.0983V13.7025C91.0983 12.1979 90.0246 11.0344 88.6406 11.0344C87.2565 11.0344 86.1549 12.1979 86.1549 13.7025V22.2182H81.9187V22.2171Z" fill="#2DD4BF"/>
<path d="M110.9 16.3695C111.379 17.9305 112.764 18.9531 114.487 18.9531C115.702 18.9531 116.662 18.5274 117.396 17.6478L121.492 18.5849C120.164 21.0547 117.595 22.5876 114.459 22.5876C112.17 22.5876 110.251 21.8499 108.725 20.3734C107.2 18.898 106.437 17.052 106.437 14.8378C106.437 12.6236 107.171 10.8069 108.668 9.3315C110.166 7.82681 112.001 7.08911 114.233 7.08911C116.464 7.08911 118.271 7.82681 119.769 9.3315C121.266 10.8069 122 12.6528 122 14.8378C122 15.3773 121.943 15.8886 121.831 16.3706H110.9V16.3695ZM117.679 13.2182C117.142 11.7135 115.815 10.7202 114.233 10.7202C112.735 10.7202 111.408 11.7135 110.928 13.2182H117.679Z" fill="#2DD4BF"/>
</svg>
