<svg width="16" height="16" viewBox="0 0 16 16" fill="none" xmlns="http://www.w3.org/2000/svg">
<g clip-path="url(#clip0_80_2438)">
<path d="M8.5 5.5H7.5V10H8.5V5.5Z" fill="#2DD4BF"/>
<path d="M9.5 1H6.5V2H9.5V1Z" fill="#2DD4BF"/>
<path d="M14 4.50006L13.29 3.79506L12.165 4.92006C11.2441 3.85657 9.94884 3.18877 8.54839 3.05541C7.14793 2.92205 5.74994 3.33337 4.64487 4.20393C3.53979 5.07448 2.81261 6.33733 2.6144 7.73008C2.41619 9.12284 2.7622 10.5384 3.58053 11.6827C4.39887 12.827 5.62661 13.612 7.00867 13.8746C8.39072 14.1372 9.82083 13.8573 11.0019 13.0929C12.1829 12.3286 13.024 11.1386 13.3505 9.77022C13.677 8.40184 13.4637 6.96028 12.755 5.74506L14 4.50006ZM7.99997 13.0001C7.10995 13.0001 6.23992 12.7361 5.4999 12.2417C4.75988 11.7472 4.18311 11.0444 3.84251 10.2221C3.50192 9.39986 3.4128 8.49506 3.58644 7.62215C3.76007 6.74924 4.18865 5.94741 4.81799 5.31808C5.44733 4.68874 6.24915 4.26016 7.12206 4.08652C7.99498 3.91289 8.89978 4.002 9.72205 4.3426C10.5443 4.68319 11.2471 5.25997 11.7416 5.99999C12.236 6.74001 12.5 7.61004 12.5 8.50006C12.5 9.69353 12.0259 10.8381 11.1819 11.682C10.338 12.526 9.19344 13.0001 7.99997 13.0001Z" fill="#2DD4BF"/>
</g>
<defs>
<clipPath id="clip0_80_2438">
<rect width="16" height="16" fill="white"/>
</clipPath>
</defs>
</svg>
