<svg width="32" height="32" viewBox="0 0 32 32" fill="none" xmlns="http://www.w3.org/2000/svg">
<g clip-path="url(#clip0_184_268)">
<path d="M26 6H24V2H22V6H20V18H22V22H24V18H26V6ZM24 16H22V8H24V16Z" fill="#779A98"/>
<path d="M14 11H12V7H10V11H8V21H10V25H12V21H14V11ZM12 19H10V13H12V19Z" fill="#779A98"/>
<path d="M30 30H4C3.46957 30 2.96086 29.7893 2.58579 29.4142C2.21071 29.0391 2 28.5304 2 28V2H4V28H30V30Z" fill="#779A98"/>
</g>
<defs>
<clipPath id="clip0_184_268">
<rect width="32" height="32" fill="white"/>
</clipPath>
</defs>
</svg>
