<svg width="32" height="35" viewBox="0 0 32 35" fill="none" xmlns="http://www.w3.org/2000/svg">
<path d="M6 26V17.8281L2.4141 21.4141L1 20L7 14L13 20L11.5859 21.4141L8 17.8281V26H18V28H8C7.46976 27.9994 6.96142 27.7884 6.58649 27.4135C6.21155 27.0386 6.00064 26.5302 6 26Z" fill="#2DD4BF"/>
<path d="M26 6V14.1719L29.5859 10.5859L31 12L25 18L19 12L20.4141 10.5859L24 14.1719V6H14V4H24C24.5302 4.00064 25.0386 4.21155 25.4135 4.58649C25.7884 4.96142 25.9994 5.46976 26 6Z" fill="#2DD4BF"/>
<path d="M8 2H3V4H8V6H4C3.46957 6 2.96086 6.21071 2.58579 6.58579C2.21071 6.96086 2 7.46957 2 8V10C2 10.5304 2.21071 11.0391 2.58579 11.4142C2.96086 11.7893 3.46957 12 4 12H10V4C9.99939 3.46975 9.78848 2.9614 9.41354 2.58646C9.0386 2.21152 8.53025 2.00061 8 2ZM8 10H4V8H8V10Z" fill="#2DD4BF"/>
<path d="M21 26.5L25 21L29 26.5L25 32.5L21 26.5Z" stroke="#2DD4BF" stroke-width="2"/>
</svg>
