<svg width="19" height="19" viewBox="0 0 19 19" fill="none" xmlns="http://www.w3.org/2000/svg">
<g clip-path="url(#clip0_35_528)">
<path d="M14.25 8.3125H7.125V4.75C7.125 4.12011 7.37522 3.51602 7.82062 3.07062C8.26602 2.62522 8.87011 2.375 9.5 2.375C10.1299 2.375 10.734 2.62522 11.1794 3.07062C11.6248 3.51602 11.875 4.12011 11.875 4.75H13.0625C13.0625 3.80517 12.6872 2.89903 12.0191 2.23093C11.351 1.56283 10.4448 1.1875 9.5 1.1875C8.55517 1.1875 7.64903 1.56283 6.98093 2.23093C6.31283 2.89903 5.9375 3.80517 5.9375 4.75V8.3125H4.75C4.43506 8.3125 4.13301 8.43761 3.91031 8.66031C3.68761 8.88301 3.5625 9.18506 3.5625 9.5V16.625C3.5625 16.9399 3.68761 17.242 3.91031 17.4647C4.13301 17.6874 4.43506 17.8125 4.75 17.8125H14.25C14.5649 17.8125 14.867 17.6874 15.0897 17.4647C15.3124 17.242 15.4375 16.9399 15.4375 16.625V9.5C15.4375 9.18506 15.3124 8.88301 15.0897 8.66031C14.867 8.43761 14.5649 8.3125 14.25 8.3125ZM14.25 16.625H4.75V9.5H14.25V16.625Z" fill="#2DD4BF"/>
</g>
<defs>
<clipPath id="clip0_35_528">
<rect width="19" height="19" fill="white"/>
</clipPath>
</defs>
</svg>
